<svg width="28" height="29" viewBox="0 0 28 29" fill="none" xmlns="http://www.w3.org/2000/svg">
<path d="M10.3806 24.6956V21.0495C10.3805 20.1221 11.1014 19.3685 11.9946 19.3623H15.2662C16.1636 19.3623 16.8911 20.1177 16.8911 21.0495V21.0495V24.7069C16.8909 25.4943 17.4962 26.1378 18.2543 26.1563H20.4354C22.6097 26.1563 24.3723 24.3261 24.3723 22.0686V22.0686V11.6965C24.3607 10.8083 23.959 9.97433 23.2817 9.43181L15.8224 3.1927C14.5156 2.10634 12.6579 2.10634 11.3511 3.1927L3.92453 9.44313C3.24464 9.98346 2.84236 10.8188 2.83398 11.7078V22.0686C2.83398 24.3261 4.59658 26.1563 6.77086 26.1563H8.95195C9.7289 26.1563 10.3588 25.5023 10.3588 24.6956V24.6956" stroke="white" stroke-width="1.5" stroke-linecap="round" stroke-linejoin="round"/>
</svg>
