<svg width="75" height="29" viewBox="0 0 75 29" fill="none" xmlns="http://www.w3.org/2000/svg">
<rect y="0.757568" width="75" height="28" rx="14" fill="#FFC700" fill-opacity="0.18"/>
<path d="M10.016 11.2816V14.0776H13.064V14.9776H10.016V17.8576H13.424V18.7576H8.924V10.3816H13.424V11.2816H10.016ZM23.1043 12.0616C23.6163 12.0616 24.0723 12.1696 24.4723 12.3856C24.8723 12.5936 25.1883 12.9096 25.4203 13.3336C25.6523 13.7576 25.7683 14.2736 25.7683 14.8816V18.7576H24.6883V15.0376C24.6883 14.3816 24.5243 13.8816 24.1963 13.5376C23.8763 13.1856 23.4403 13.0096 22.8883 13.0096C22.3203 13.0096 21.8683 13.1936 21.5323 13.5616C21.1963 13.9216 21.0283 14.4456 21.0283 15.1336V18.7576H19.9483V15.0376C19.9483 14.3816 19.7843 13.8816 19.4563 13.5376C19.1363 13.1856 18.7003 13.0096 18.1483 13.0096C17.5803 13.0096 17.1283 13.1936 16.7923 13.5616C16.4563 13.9216 16.2883 14.4456 16.2883 15.1336V18.7576H15.1963V12.1816H16.2883V13.1296C16.5043 12.7856 16.7923 12.5216 17.1523 12.3376C17.5203 12.1536 17.9243 12.0616 18.3643 12.0616C18.9163 12.0616 19.4043 12.1856 19.8283 12.4336C20.2523 12.6816 20.5683 13.0456 20.7763 13.5256C20.9603 13.0616 21.2643 12.7016 21.6883 12.4456C22.1123 12.1896 22.5843 12.0616 23.1043 12.0616ZM30.5908 15.4456C30.5908 14.7736 30.7268 14.1856 30.9988 13.6816C31.2708 13.1696 31.6428 12.7736 32.1148 12.4936C32.5948 12.2136 33.1268 12.0736 33.7108 12.0736C34.2868 12.0736 34.7868 12.1976 35.2108 12.4456C35.6348 12.6936 35.9508 13.0056 36.1588 13.3816V12.1816H37.2628V18.7576H36.1588V17.5336C35.9428 17.9176 35.6188 18.2376 35.1868 18.4936C34.7628 18.7416 34.2668 18.8656 33.6988 18.8656C33.1148 18.8656 32.5868 18.7216 32.1148 18.4336C31.6428 18.1456 31.2708 17.7416 30.9988 17.2216C30.7268 16.7016 30.5908 16.1096 30.5908 15.4456ZM36.1588 15.4576C36.1588 14.9616 36.0588 14.5296 35.8588 14.1616C35.6588 13.7936 35.3868 13.5136 35.0428 13.3216C34.7068 13.1216 34.3348 13.0216 33.9268 13.0216C33.5188 13.0216 33.1468 13.1176 32.8108 13.3096C32.4748 13.5016 32.2068 13.7816 32.0068 14.1496C31.8068 14.5176 31.7068 14.9496 31.7068 15.4456C31.7068 15.9496 31.8068 16.3896 32.0068 16.7656C32.2068 17.1336 32.4748 17.4176 32.8108 17.6176C33.1468 17.8096 33.5188 17.9056 33.9268 17.9056C34.3348 17.9056 34.7068 17.8096 35.0428 17.6176C35.3868 17.4176 35.6588 17.1336 35.8588 16.7656C36.0588 16.3896 36.1588 15.9536 36.1588 15.4576ZM40.3202 9.87757V18.7576H39.2282V9.87757H40.3202ZM48.3013 15.2176C48.3013 15.4256 48.2893 15.6456 48.2653 15.8776H43.0093C43.0493 16.5256 43.2693 17.0336 43.6693 17.4016C44.0773 17.7616 44.5693 17.9416 45.1453 17.9416C45.6173 17.9416 46.0093 17.8336 46.3213 17.6176C46.6413 17.3936 46.8653 17.0976 46.9933 16.7296H48.1693C47.9933 17.3616 47.6413 17.8776 47.1133 18.2776C46.5853 18.6696 45.9293 18.8656 45.1453 18.8656C44.5213 18.8656 43.9613 18.7256 43.4653 18.4456C42.9773 18.1656 42.5933 17.7696 42.3133 17.2576C42.0333 16.7376 41.8933 16.1376 41.8933 15.4576C41.8933 14.7776 42.0293 14.1816 42.3013 13.6696C42.5733 13.1576 42.9533 12.7656 43.4413 12.4936C43.9373 12.2136 44.5053 12.0736 45.1453 12.0736C45.7693 12.0736 46.3213 12.2096 46.8013 12.4816C47.2813 12.7536 47.6493 13.1296 47.9053 13.6096C48.1693 14.0816 48.3013 14.6176 48.3013 15.2176ZM47.1733 14.9896C47.1733 14.5736 47.0813 14.2176 46.8973 13.9216C46.7133 13.6176 46.4613 13.3896 46.1413 13.2376C45.8293 13.0776 45.4813 12.9976 45.0973 12.9976C44.5453 12.9976 44.0733 13.1736 43.6813 13.5256C43.2973 13.8776 43.0773 14.3656 43.0213 14.9896H47.1733ZM50.9548 13.2496C51.1468 12.8736 51.4188 12.5816 51.7708 12.3736C52.1308 12.1656 52.5668 12.0616 53.0788 12.0616V13.1896H52.7908C51.5668 13.1896 50.9548 13.8536 50.9548 15.1816V18.7576H49.8628V12.1816H50.9548V13.2496ZM55.7913 13.0816V16.9576C55.7913 17.2776 55.8593 17.5056 55.9953 17.6416C56.1313 17.7696 56.3673 17.8336 56.7033 17.8336H57.5073V18.7576H56.5233C55.9153 18.7576 55.4593 18.6176 55.1553 18.3376C54.8513 18.0576 54.6993 17.5976 54.6993 16.9576V13.0816H53.8473V12.1816H54.6993V10.5256H55.7913V12.1816H57.5073V13.0816H55.7913ZM58.5424 15.4456C58.5424 14.7736 58.6784 14.1856 58.9504 13.6816C59.2224 13.1696 59.5944 12.7736 60.0664 12.4936C60.5464 12.2136 61.0784 12.0736 61.6624 12.0736C62.2384 12.0736 62.7384 12.1976 63.1624 12.4456C63.5864 12.6936 63.9024 13.0056 64.1104 13.3816V12.1816H65.2144V18.7576H64.1104V17.5336C63.8944 17.9176 63.5704 18.2376 63.1384 18.4936C62.7144 18.7416 62.2184 18.8656 61.6504 18.8656C61.0664 18.8656 60.5384 18.7216 60.0664 18.4336C59.5944 18.1456 59.2224 17.7416 58.9504 17.2216C58.6784 16.7016 58.5424 16.1096 58.5424 15.4456ZM64.1104 15.4576C64.1104 14.9616 64.0104 14.5296 63.8104 14.1616C63.6104 13.7936 63.3384 13.5136 62.9944 13.3216C62.6584 13.1216 62.2864 13.0216 61.8784 13.0216C61.4704 13.0216 61.0984 13.1176 60.7624 13.3096C60.4264 13.5016 60.1584 13.7816 59.9584 14.1496C59.7584 14.5176 59.6584 14.9496 59.6584 15.4456C59.6584 15.9496 59.7584 16.3896 59.9584 16.7656C60.1584 17.1336 60.4264 17.4176 60.7624 17.6176C61.0984 17.8096 61.4704 17.9056 61.8784 17.9056C62.2864 17.9056 62.6584 17.8096 62.9944 17.6176C63.3384 17.4176 63.6104 17.1336 63.8104 16.7656C64.0104 16.3896 64.1104 15.9536 64.1104 15.4576Z" fill="#FF9A23"/>
</svg>
