<svg width="56" height="29" viewBox="0 0 56 29" fill="none" xmlns="http://www.w3.org/2000/svg">
<rect y="0.757812" width="56" height="28" rx="14" fill="#FF0000" fill-opacity="0.18"/>
<path d="M8.516 14.5698C8.516 13.7538 8.7 13.0218 9.068 12.3738C9.436 11.7178 9.936 11.2058 10.568 10.8378C11.208 10.4698 11.916 10.2858 12.692 10.2858C13.604 10.2858 14.4 10.5058 15.08 10.9458C15.76 11.3858 16.256 12.0098 16.568 12.8178H15.26C15.028 12.3138 14.692 11.9258 14.252 11.6538C13.82 11.3818 13.3 11.2458 12.692 11.2458C12.108 11.2458 11.584 11.3818 11.12 11.6538C10.656 11.9258 10.292 12.3138 10.028 12.8178C9.764 13.3138 9.632 13.8978 9.632 14.5698C9.632 15.2338 9.764 15.8178 10.028 16.3218C10.292 16.8178 10.656 17.2018 11.12 17.4738C11.584 17.7458 12.108 17.8818 12.692 17.8818C13.3 17.8818 13.82 17.7498 14.252 17.4858C14.692 17.2138 15.028 16.8258 15.26 16.3218H16.568C16.256 17.1218 15.76 17.7418 15.08 18.1818C14.4 18.6138 13.604 18.8298 12.692 18.8298C11.916 18.8298 11.208 18.6498 10.568 18.2898C9.936 17.9218 9.436 17.4138 9.068 16.7658C8.7 16.1178 8.516 15.3858 8.516 14.5698ZM19.4055 13.2498C19.5975 12.8738 19.8695 12.5818 20.2215 12.3738C20.5815 12.1658 21.0175 12.0618 21.5295 12.0618V13.1898H21.2415C20.0175 13.1898 19.4055 13.8538 19.4055 15.1818V18.7578H18.3135V12.1818H19.4055V13.2498ZM24.0021 12.1818V18.7578H22.9101V12.1818H24.0021ZM24.6261 10.3218L22.0701 11.6898V10.8738L24.6261 9.37381V10.3218ZM27.3152 13.0818V16.9578C27.3152 17.2778 27.3832 17.5058 27.5192 17.6418C27.6552 17.7698 27.8912 17.8338 28.2272 17.8338H29.0312V18.7578H28.0472C27.4392 18.7578 26.9832 18.6178 26.6792 18.3378C26.3752 18.0578 26.2232 17.5978 26.2232 16.9578V13.0818H25.3712V12.1818H26.2232V10.5258H27.3152V12.1818H29.0312V13.0818H27.3152ZM31.0383 11.1138C30.8303 11.1138 30.6543 11.0418 30.5103 10.8978C30.3663 10.7538 30.2943 10.5778 30.2943 10.3698C30.2943 10.1618 30.3663 9.98581 30.5103 9.84181C30.6543 9.69781 30.8303 9.62581 31.0383 9.62581C31.2383 9.62581 31.4063 9.69781 31.5423 9.84181C31.6863 9.98581 31.7583 10.1618 31.7583 10.3698C31.7583 10.5778 31.6863 10.7538 31.5423 10.8978C31.4063 11.0418 31.2383 11.1138 31.0383 11.1138ZM31.5663 12.1818V18.7578H30.4743V12.1818H31.5663ZM33.1394 15.4578C33.1394 14.7778 33.2754 14.1858 33.5474 13.6818C33.8194 13.1698 34.1954 12.7738 34.6754 12.4938C35.1634 12.2138 35.7194 12.0738 36.3434 12.0738C37.1514 12.0738 37.8154 12.2698 38.3354 12.6618C38.8634 13.0538 39.2114 13.5978 39.3794 14.2938H38.2034C38.0914 13.8938 37.8714 13.5778 37.5434 13.3458C37.2234 13.1138 36.8234 12.9978 36.3434 12.9978C35.7194 12.9978 35.2154 13.2138 34.8314 13.6458C34.4474 14.0698 34.2554 14.6738 34.2554 15.4578C34.2554 16.2498 34.4474 16.8618 34.8314 17.2938C35.2154 17.7258 35.7194 17.9418 36.3434 17.9418C36.8234 17.9418 37.2234 17.8298 37.5434 17.6058C37.8634 17.3818 38.0834 17.0618 38.2034 16.6458H39.3794C39.2034 17.3178 38.8514 17.8578 38.3234 18.2658C37.7954 18.6658 37.1354 18.8658 36.3434 18.8658C35.7194 18.8658 35.1634 18.7258 34.6754 18.4458C34.1954 18.1658 33.8194 17.7698 33.5474 17.2578C33.2754 16.7458 33.1394 16.1458 33.1394 15.4578ZM43.8245 18.8658C43.2085 18.8658 42.6485 18.7258 42.1445 18.4458C41.6485 18.1658 41.2565 17.7698 40.9685 17.2578C40.6885 16.7378 40.5485 16.1378 40.5485 15.4578C40.5485 14.7858 40.6925 14.1938 40.9805 13.6818C41.2765 13.1618 41.6765 12.7658 42.1805 12.4938C42.6845 12.2138 43.2485 12.0738 43.8725 12.0738C44.4965 12.0738 45.0605 12.2138 45.5645 12.4938C46.0685 12.7658 46.4645 13.1578 46.7525 13.6698C47.0485 14.1818 47.1965 14.7778 47.1965 15.4578C47.1965 16.1378 47.0445 16.7378 46.7405 17.2578C46.4445 17.7698 46.0405 18.1658 45.5285 18.4458C45.0165 18.7258 44.4485 18.8658 43.8245 18.8658ZM43.8245 17.9058C44.2165 17.9058 44.5845 17.8138 44.9285 17.6298C45.2725 17.4458 45.5485 17.1698 45.7565 16.8018C45.9725 16.4338 46.0805 15.9858 46.0805 15.4578C46.0805 14.9298 45.9765 14.4818 45.7685 14.1138C45.5605 13.7458 45.2885 13.4738 44.9525 13.2978C44.6165 13.1138 44.2525 13.0218 43.8605 13.0218C43.4605 13.0218 43.0925 13.1138 42.7565 13.2978C42.4285 13.4738 42.1645 13.7458 41.9645 14.1138C41.7645 14.4818 41.6645 14.9298 41.6645 15.4578C41.6645 15.9938 41.7605 16.4458 41.9525 16.8138C42.1525 17.1818 42.4165 17.4578 42.7445 17.6418C43.0725 17.8178 43.4325 17.9058 43.8245 17.9058Z" fill="#CC4141"/>
</svg>
