<svg width="61" height="29" viewBox="0 0 61 29" fill="none" xmlns="http://www.w3.org/2000/svg">
<rect y="0.303223" width="61" height="28" rx="14" fill="#00FF29" fill-opacity="0.18"/>
<path d="M15.5 18.3032H14.408L10.016 11.6432V18.3032H8.924V9.92722H10.016L14.408 16.5752V9.92722H15.5V18.3032ZM20.3495 18.4112C19.7335 18.4112 19.1735 18.2712 18.6695 17.9912C18.1735 17.7112 17.7815 17.3152 17.4935 16.8032C17.2135 16.2832 17.0735 15.6832 17.0735 15.0032C17.0735 14.3312 17.2175 13.7392 17.5055 13.2272C17.8015 12.7072 18.2015 12.3112 18.7055 12.0392C19.2095 11.7592 19.7735 11.6192 20.3975 11.6192C21.0215 11.6192 21.5855 11.7592 22.0895 12.0392C22.5935 12.3112 22.9895 12.7032 23.2775 13.2152C23.5735 13.7272 23.7215 14.3232 23.7215 15.0032C23.7215 15.6832 23.5695 16.2832 23.2655 16.8032C22.9695 17.3152 22.5655 17.7112 22.0535 17.9912C21.5415 18.2712 20.9735 18.4112 20.3495 18.4112ZM20.3495 17.4512C20.7415 17.4512 21.1095 17.3592 21.4535 17.1752C21.7975 16.9912 22.0735 16.7152 22.2815 16.3472C22.4975 15.9792 22.6055 15.5312 22.6055 15.0032C22.6055 14.4752 22.5015 14.0272 22.2935 13.6592C22.0855 13.2912 21.8135 13.0192 21.4775 12.8432C21.1415 12.6592 20.7775 12.5672 20.3855 12.5672C19.9855 12.5672 19.6175 12.6592 19.2815 12.8432C18.9535 13.0192 18.6895 13.2912 18.4895 13.6592C18.2895 14.0272 18.1895 14.4752 18.1895 15.0032C18.1895 15.5392 18.2855 15.9912 18.4775 16.3592C18.6775 16.7272 18.9415 17.0032 19.2695 17.1872C19.5975 17.3632 19.9575 17.4512 20.3495 17.4512ZM26.3693 12.7952C26.5613 12.4192 26.8333 12.1272 27.1853 11.9192C27.5453 11.7112 27.9813 11.6072 28.4933 11.6072V12.7352H28.2053C26.9813 12.7352 26.3693 13.3992 26.3693 14.7272V18.3032H25.2773V11.7272H26.3693V12.7952ZM37.7818 11.6072C38.2938 11.6072 38.7498 11.7152 39.1498 11.9312C39.5498 12.1392 39.8658 12.4552 40.0978 12.8792C40.3298 13.3032 40.4458 13.8192 40.4458 14.4272V18.3032H39.3658V14.5832C39.3658 13.9272 39.2018 13.4272 38.8738 13.0832C38.5538 12.7312 38.1178 12.5552 37.5658 12.5552C36.9978 12.5552 36.5458 12.7392 36.2098 13.1072C35.8738 13.4672 35.7058 13.9912 35.7058 14.6792V18.3032H34.6258V14.5832C34.6258 13.9272 34.4618 13.4272 34.1338 13.0832C33.8138 12.7312 33.3778 12.5552 32.8258 12.5552C32.2578 12.5552 31.8058 12.7392 31.4698 13.1072C31.1338 13.4672 30.9658 13.9912 30.9658 14.6792V18.3032H29.8738V11.7272H30.9658V12.6752C31.1818 12.3312 31.4698 12.0672 31.8298 11.8832C32.1978 11.6992 32.6018 11.6072 33.0418 11.6072C33.5938 11.6072 34.0818 11.7312 34.5058 11.9792C34.9298 12.2272 35.2458 12.5912 35.4538 13.0712C35.6378 12.6072 35.9418 12.2472 36.3658 11.9912C36.7898 11.7352 37.2618 11.6072 37.7818 11.6072ZM41.9491 14.9912C41.9491 14.3192 42.0851 13.7312 42.3571 13.2272C42.6291 12.7152 43.0011 12.3192 43.4731 12.0392C43.9531 11.7592 44.4851 11.6192 45.0691 11.6192C45.6451 11.6192 46.1451 11.7432 46.5691 11.9912C46.9931 12.2392 47.3091 12.5512 47.5171 12.9272V11.7272H48.6211V18.3032H47.5171V17.0792C47.3011 17.4632 46.9771 17.7832 46.5451 18.0392C46.1211 18.2872 45.6251 18.4112 45.0571 18.4112C44.4731 18.4112 43.9451 18.2672 43.4731 17.9792C43.0011 17.6912 42.6291 17.2872 42.3571 16.7672C42.0851 16.2472 41.9491 15.6552 41.9491 14.9912ZM47.5171 15.0032C47.5171 14.5072 47.4171 14.0752 47.2171 13.7072C47.0171 13.3392 46.7451 13.0592 46.4011 12.8672C46.0651 12.6672 45.6931 12.5672 45.2851 12.5672C44.8771 12.5672 44.5051 12.6632 44.1691 12.8552C43.8331 13.0472 43.5651 13.3272 43.3651 13.6952C43.1651 14.0632 43.0651 14.4952 43.0651 14.9912C43.0651 15.4952 43.1651 15.9352 43.3651 16.3112C43.5651 16.6792 43.8331 16.9632 44.1691 17.1632C44.5051 17.3552 44.8771 17.4512 45.2851 17.4512C45.6931 17.4512 46.0651 17.3552 46.4011 17.1632C46.7451 16.9632 47.0171 16.6792 47.2171 16.3112C47.4171 15.9352 47.5171 15.4992 47.5171 15.0032ZM51.6785 9.42322V18.3032H50.5865V9.42322H51.6785Z" fill="#1A932E"/>
</svg>
