<svg width="29" height="30" viewBox="0 0 29 30" fill="none" xmlns="http://www.w3.org/2000/svg">
<path fill-rule="evenodd" clip-rule="evenodd" d="M12.0975 18.6626C16.4235 18.6626 20.1208 19.3272 20.1208 21.9821C20.1208 24.6369 16.4481 25.3205 12.0975 25.3205C7.77043 25.3205 4.07422 24.6619 4.07422 22.0058C4.07422 19.3498 7.74581 18.6626 12.0975 18.6626Z" stroke="white" stroke-width="1.5" stroke-linecap="round" stroke-linejoin="round"/>
<path fill-rule="evenodd" clip-rule="evenodd" d="M12.0974 14.8736C9.2572 14.8736 6.9541 12.5397 6.9541 9.66018C6.9541 6.78062 9.2572 4.44678 12.0974 4.44678C14.9364 4.44678 17.2395 6.78062 17.2395 9.66018C17.25 12.529 14.9633 14.8629 12.1337 14.8736H12.0974Z" stroke="white" stroke-width="1.5" stroke-linecap="round" stroke-linejoin="round"/>
<path d="M20.1787 13.5204C22.0561 13.2528 23.502 11.6193 23.5055 9.64211C23.5055 7.69347 22.1042 6.07655 20.2667 5.771" stroke="white" stroke-width="1.5" stroke-linecap="round" stroke-linejoin="round"/>
<path d="M22.6562 18.0984C24.475 18.373 25.745 19.0198 25.745 20.3514C25.745 21.268 25.147 21.8625 24.1807 22.2346" stroke="white" stroke-width="1.5" stroke-linecap="round" stroke-linejoin="round"/>
</svg>
