<svg width="18" height="26" viewBox="0 0 16 24" fill="none" xmlns="http://www.w3.org/2000/svg">
<path d="M1 8.33336V11.0834C1 11.67 1.213 12.2445 1.57983 12.6967L4.55 16.2045C4.92867 16.6445 5.12983 17.2189 5.12983 17.8178V20.5556C5.12983 21.9 6.19483 23 7.4965 23H8.67983C9.9815 23 11.0465 21.9 11.0465 20.5556V17.8056C11.0465 17.2189 11.2595 16.6445 11.6263 16.1922L14.5965 12.6845C14.987 12.2445 15.2 11.67 15.2 11.0834V8.33336C15.2 6.98892 14.135 5.88892 12.8333 5.88892H3.36667C2.065 5.88892 1 6.98892 1 8.33336Z" stroke="white" stroke-width="1.5" stroke-linecap="round" stroke-linejoin="round"/>
<path d="M4.5498 5.88889V1" stroke="white" stroke-width="1.5" stroke-linecap="round" stroke-linejoin="round"/>
<path d="M11.6504 5.88889V1" stroke="white" stroke-width="1.5" stroke-linecap="round" stroke-linejoin="round"/>
</svg>

